<svg width="106" height="93" viewBox="0 0 106 93" fill="none" xmlns="http://www.w3.org/2000/svg">
<path d="M11.045 68.346C11.5563 68.4413 11.9767 68.697 12.306 69.113C12.6353 69.529 12.8 70.0057 12.8 70.543C12.8 71.0283 12.6787 71.4573 12.436 71.83C12.202 72.194 11.8597 72.48 11.409 72.688C10.9583 72.896 10.4253 73 9.81 73H5.897V63.926H9.641C10.2563 63.926 10.785 64.0257 11.227 64.225C11.6777 64.4243 12.0157 64.7017 12.241 65.057C12.475 65.4123 12.592 65.8153 12.592 66.266C12.592 66.7947 12.449 67.2367 12.163 67.592C11.8857 67.9473 11.513 68.1986 11.045 68.346ZM7.717 67.67H9.381C9.81434 67.67 10.148 67.5747 10.382 67.384C10.616 67.1847 10.733 66.903 10.733 66.539C10.733 66.175 10.616 65.8933 10.382 65.694C10.148 65.4946 9.81434 65.395 9.381 65.395H7.717V67.67ZM9.55 71.518C9.992 71.518 10.3343 71.414 10.577 71.206C10.8283 70.998 10.954 70.7033 10.954 70.322C10.954 69.932 10.824 69.6287 10.564 69.412C10.304 69.1867 9.953 69.074 9.511 69.074H7.717V71.518H9.55Z" fill="#372339"/>
<path d="M15.2515 64.94C14.9309 64.94 14.6622 64.8403 14.4455 64.641C14.2375 64.433 14.1335 64.1773 14.1335 63.874C14.1335 63.5706 14.2375 63.3193 14.4455 63.12C14.6622 62.912 14.9309 62.808 15.2515 62.808C15.5722 62.808 15.8365 62.912 16.0445 63.12C16.2612 63.3193 16.3695 63.5706 16.3695 63.874C16.3695 64.1773 16.2612 64.433 16.0445 64.641C15.8365 64.8403 15.5722 64.94 15.2515 64.94ZM16.1485 65.798V73H14.3285V65.798H16.1485Z" fill="#372339"/>
<path d="M20.8457 65.681C21.383 65.681 21.8554 65.7893 22.2627 66.006C22.67 66.214 22.9907 66.487 23.2247 66.825V65.798H25.0577V73.052C25.0577 73.7193 24.9234 74.313 24.6547 74.833C24.386 75.3617 23.983 75.7776 23.4457 76.081C22.9084 76.393 22.2583 76.549 21.4957 76.549C20.473 76.549 19.6323 76.3107 18.9737 75.834C18.3237 75.3573 17.9553 74.7073 17.8687 73.884H19.6757C19.771 74.2133 19.9747 74.4733 20.2867 74.664C20.6073 74.8633 20.993 74.963 21.4437 74.963C21.9723 74.963 22.4014 74.8027 22.7307 74.482C23.06 74.17 23.2247 73.6933 23.2247 73.052V71.934C22.9907 72.272 22.6657 72.5537 22.2497 72.779C21.8424 73.0043 21.3743 73.117 20.8457 73.117C20.239 73.117 19.6843 72.961 19.1817 72.649C18.679 72.337 18.2803 71.8993 17.9857 71.336C17.6997 70.764 17.5567 70.1097 17.5567 69.373C17.5567 68.645 17.6997 67.9993 17.9857 67.436C18.2803 66.8726 18.6747 66.4393 19.1687 66.136C19.6713 65.8327 20.2303 65.681 20.8457 65.681ZM23.2247 69.399C23.2247 68.957 23.138 68.58 22.9647 68.268C22.7913 67.9473 22.5574 67.7047 22.2627 67.54C21.968 67.3667 21.6517 67.28 21.3137 67.28C20.9757 67.28 20.6637 67.3623 20.3777 67.527C20.0917 67.6916 19.8577 67.9343 19.6757 68.255C19.5023 68.567 19.4157 68.9397 19.4157 69.373C19.4157 69.8063 19.5023 70.1877 19.6757 70.517C19.8577 70.8377 20.0917 71.0847 20.3777 71.258C20.6723 71.4313 20.9844 71.518 21.3137 71.518C21.6517 71.518 21.968 71.4356 22.2627 71.271C22.5574 71.0977 22.7913 70.855 22.9647 70.543C23.138 70.2223 23.2247 69.841 23.2247 69.399Z" fill="#372339"/>
<path d="M30.0852 63.926C31.0386 63.926 31.8749 64.1123 32.5942 64.485C33.3222 64.8577 33.8812 65.3907 34.2712 66.084C34.6699 66.7687 34.8692 67.566 34.8692 68.476C34.8692 69.386 34.6699 70.1833 34.2712 70.868C33.8812 71.544 33.3222 72.0683 32.5942 72.441C31.8749 72.8137 31.0386 73 30.0852 73H26.9132V63.926H30.0852ZM30.0202 71.453C30.9736 71.453 31.7102 71.193 32.2302 70.673C32.7502 70.153 33.0102 69.4207 33.0102 68.476C33.0102 67.5313 32.7502 66.7947 32.2302 66.266C31.7102 65.7286 30.9736 65.46 30.0202 65.46H28.7332V71.453H30.0202Z" fill="#372339"/>
<path d="M39.5076 73.117C38.8143 73.117 38.1903 72.9653 37.6356 72.662C37.0809 72.35 36.6433 71.9123 36.3226 71.349C36.0106 70.7857 35.8546 70.1357 35.8546 69.399C35.8546 68.6623 36.0149 68.0123 36.3356 67.449C36.6649 66.8857 37.1113 66.4523 37.6746 66.149C38.2379 65.837 38.8663 65.681 39.5596 65.681C40.2529 65.681 40.8813 65.837 41.4446 66.149C42.0079 66.4523 42.4499 66.8857 42.7706 67.449C43.0999 68.0123 43.2646 68.6623 43.2646 69.399C43.2646 70.1357 43.0956 70.7857 42.7576 71.349C42.4283 71.9123 41.9776 72.35 41.4056 72.662C40.8423 72.9653 40.2096 73.117 39.5076 73.117ZM39.5076 71.531C39.8369 71.531 40.1446 71.453 40.4306 71.297C40.7253 71.1323 40.9593 70.8897 41.1326 70.569C41.3059 70.2483 41.3926 69.8583 41.3926 69.399C41.3926 68.7143 41.2106 68.19 40.8466 67.826C40.4913 67.4533 40.0536 67.267 39.5336 67.267C39.0136 67.267 38.5759 67.4533 38.2206 67.826C37.8739 68.19 37.7006 68.7143 37.7006 69.399C37.7006 70.0837 37.8696 70.6123 38.2076 70.985C38.5543 71.349 38.9876 71.531 39.5076 71.531Z" fill="#372339"/>
<path d="M47.4986 65.681C48.036 65.681 48.5083 65.7893 48.9156 66.006C49.323 66.214 49.6436 66.487 49.8776 66.825V65.798H51.7106V73.052C51.7106 73.7193 51.5763 74.313 51.3076 74.833C51.039 75.3617 50.636 75.7776 50.0986 76.081C49.5613 76.393 48.9113 76.549 48.1486 76.549C47.126 76.549 46.2853 76.3107 45.6266 75.834C44.9766 75.3573 44.6083 74.7073 44.5216 73.884H46.3286C46.424 74.2133 46.6276 74.4733 46.9396 74.664C47.2603 74.8633 47.646 74.963 48.0966 74.963C48.6253 74.963 49.0543 74.8027 49.3836 74.482C49.713 74.17 49.8776 73.6933 49.8776 73.052V71.934C49.6436 72.272 49.3186 72.5537 48.9026 72.779C48.4953 73.0043 48.0273 73.117 47.4986 73.117C46.892 73.117 46.3373 72.961 45.8346 72.649C45.332 72.337 44.9333 71.8993 44.6386 71.336C44.3526 70.764 44.2096 70.1097 44.2096 69.373C44.2096 68.645 44.3526 67.9993 44.6386 67.436C44.9333 66.8726 45.3276 66.4393 45.8216 66.136C46.3243 65.8327 46.8833 65.681 47.4986 65.681ZM49.8776 69.399C49.8776 68.957 49.791 68.58 49.6176 68.268C49.4443 67.9473 49.2103 67.7047 48.9156 67.54C48.621 67.3667 48.3046 67.28 47.9666 67.28C47.6286 67.28 47.3166 67.3623 47.0306 67.527C46.7446 67.6916 46.5106 67.9343 46.3286 68.255C46.1553 68.567 46.0686 68.9397 46.0686 69.373C46.0686 69.8063 46.1553 70.1877 46.3286 70.517C46.5106 70.8377 46.7446 71.0847 47.0306 71.258C47.3253 71.4313 47.6373 71.518 47.9666 71.518C48.3046 71.518 48.621 71.4356 48.9156 71.271C49.2103 71.0977 49.4443 70.855 49.6176 70.543C49.791 70.2223 49.8776 69.841 49.8776 69.399Z" fill="#372339"/>
<path d="M68.8708 63.926L66.3358 73H64.1908L62.4878 66.539L60.7068 73L58.5748 73.013L56.1308 63.926H58.0808L59.6798 70.972L61.5258 63.926H63.5538L65.2958 70.933L66.9078 63.926H68.8708Z" fill="#372339"/>
<path d="M69.6692 69.373C69.6692 68.645 69.8122 67.9993 70.0982 67.436C70.3929 66.8726 70.7872 66.4393 71.2812 66.136C71.7839 65.8327 72.3429 65.681 72.9582 65.681C73.4955 65.681 73.9635 65.7893 74.3622 66.006C74.7695 66.2227 75.0945 66.4957 75.3372 66.825V65.798H77.1702V73H75.3372V71.947C75.1032 72.285 74.7782 72.5667 74.3622 72.792C73.9549 73.0086 73.4825 73.117 72.9452 73.117C72.3385 73.117 71.7839 72.961 71.2812 72.649C70.7872 72.337 70.3929 71.8993 70.0982 71.336C69.8122 70.764 69.6692 70.1097 69.6692 69.373ZM75.3372 69.399C75.3372 68.957 75.2505 68.58 75.0772 68.268C74.9039 67.9473 74.6699 67.7047 74.3752 67.54C74.0805 67.3667 73.7642 67.28 73.4262 67.28C73.0882 67.28 72.7762 67.3623 72.4902 67.527C72.2042 67.6916 71.9702 67.9343 71.7882 68.255C71.6149 68.567 71.5282 68.9397 71.5282 69.373C71.5282 69.8063 71.6149 70.1877 71.7882 70.517C71.9702 70.8377 72.2042 71.0847 72.4902 71.258C72.7849 71.4313 73.0969 71.518 73.4262 71.518C73.7642 71.518 74.0805 71.4356 74.3752 71.271C74.6699 71.0977 74.9039 70.855 75.0772 70.543C75.2505 70.2223 75.3372 69.841 75.3372 69.399Z" fill="#372339"/>
<path d="M80.8458 63.38V73H79.0258V63.38H80.8458Z" fill="#372339"/>
<path d="M84.5419 63.38V73H82.7219V63.38H84.5419Z" fill="#372339"/>
<path d="M93.1131 69.243C93.1131 69.503 93.0958 69.737 93.0611 69.945H87.7961C87.8394 70.465 88.0214 70.8723 88.3421 71.167C88.6628 71.4616 89.0571 71.609 89.5251 71.609C90.2011 71.609 90.6821 71.3187 90.9681 70.738H92.9311C92.7231 71.4313 92.3244 72.0033 91.7351 72.454C91.1458 72.896 90.4221 73.117 89.5641 73.117C88.8708 73.117 88.2467 72.9653 87.6921 72.662C87.1461 72.35 86.7171 71.9123 86.4051 71.349C86.1018 70.7857 85.9501 70.1357 85.9501 69.399C85.9501 68.6537 86.1018 67.9993 86.4051 67.436C86.7084 66.8726 87.1331 66.4393 87.6791 66.136C88.2251 65.8327 88.8534 65.681 89.5641 65.681C90.2488 65.681 90.8598 65.8283 91.3971 66.123C91.9431 66.4176 92.3634 66.838 92.6581 67.384C92.9614 67.9213 93.1131 68.541 93.1131 69.243ZM91.2281 68.723C91.2194 68.255 91.0504 67.8823 90.7211 67.605C90.3918 67.319 89.9888 67.176 89.5121 67.176C89.0614 67.176 88.6801 67.3147 88.3681 67.592C88.0648 67.8607 87.8784 68.2376 87.8091 68.723H91.2281Z" fill="#372339"/>
<path d="M96.6385 67.293V70.777C96.6385 71.0197 96.6949 71.1973 96.8075 71.31C96.9288 71.414 97.1282 71.466 97.4055 71.466H98.2505V73H97.1065C95.5725 73 94.8055 72.2547 94.8055 70.764V67.293H93.9475V65.798H94.8055V64.017H96.6385V65.798H98.2505V67.293H96.6385Z" fill="#372339"/>
<g clip-path="url(#clip0_14_26)">
<path d="M53.3694 57C64.6191 57 73.7388 47.8803 73.7388 36.6306C73.7388 25.3809 64.6191 16.2612 53.3694 16.2612C42.1197 16.2612 33 25.3809 33 36.6306C33 47.8803 42.1197 57 53.3694 57Z" fill="#EF0702"/>
<path d="M68.8502 31.0702C68.6378 30.7104 68.6118 30.3594 68.7938 29.9953C69.6476 28.4351 69.5306 26.5802 70.2804 25.0113C70.3367 21.7739 72.0096 17.9861 69.9466 15.0563C69.6563 15.0563 69.3659 15.052 69.0755 15.052C65.7514 16.1355 62.9907 18.3891 60.8281 21.0891C59.996 22.0469 60.0003 22.0469 58.7825 21.6482C55.0986 20.6601 50.9164 20.5864 47.3193 21.9256C46.2748 21.9126 44.8229 19.3339 43.9258 18.5451C41.9149 17.3056 40.073 15.6414 37.685 15.052C36.1768 14.6489 35.596 16.6339 35.6957 17.7737C35.6957 18.4194 35.6914 19.0695 35.687 19.7153C35.726 21.3708 36.2418 23.1348 36.3978 24.838C36.7792 26.5585 37.2819 28.4871 37.8627 30.2467C38.0793 30.7018 37.9493 31.1308 37.7456 31.5772C36.5321 34.2729 35.622 37.0943 35.622 40.0847C39.0198 39.7337 42.5173 40.4791 44.9356 43.0318C45.161 43.2528 45.3213 43.4392 45.5077 42.9451C46.6648 39.9894 49.5209 37.7574 52.6586 37.3803C52.7367 37.337 52.819 37.3153 52.9013 37.363C53.4994 37.2287 54.0932 37.2677 54.6913 37.3717L54.7303 37.3457L54.7649 37.376C57.8593 37.6274 60.3123 40.1454 61.1878 43.0231C61.3135 43.4522 61.6039 43.1184 61.7079 43.0274C64.3862 40.8995 67.823 40.0717 71.1948 40.0804C71.1731 36.9686 70.3714 33.7789 68.8502 31.0702ZM39.6222 28.1231C38.8595 29.4579 37.2906 21.0371 37.4423 20.3264C37.0349 14.3369 42.9247 20.348 44.7362 22.0729C46.1881 22.8357 40.5583 25.2194 39.6222 28.1231ZM42.4523 34.5633C42.5433 33.7052 42.4566 32.6997 43.6484 33.2371C45.1913 34.0519 49.4082 35.4257 49.3302 37.363C47.9867 38.1258 42.1229 36.6436 42.4523 34.5633ZM58.8735 37.4844C55.103 37.519 62.0329 33.5535 63.1121 33.3368C64.2649 32.9077 64.5986 32.9597 64.6723 34.3856C64.4989 36.9686 60.8931 37.259 58.8735 37.4844ZM64.9886 25.1847C64.5032 24.1576 60.9754 22.9527 62.3189 21.9819C64.1739 20.1313 69.6779 14.3846 69.3009 20.4521C69.1362 22.9484 68.5815 25.9258 67.4633 28.1404C66.5315 27.4903 66.0158 25.9605 64.9886 25.1847Z" fill="#FEA309"/>
<path d="M37.4423 20.3264C37.0392 14.3369 42.9247 20.3481 44.7363 22.073C46.2011 22.8184 40.5454 25.2367 39.6222 28.1231C38.8681 29.484 37.2949 21.0415 37.4423 20.3264Z" fill="#FE8300"/>
<path d="M69.3052 20.4521C69.1405 22.9527 68.5815 25.9258 67.4676 28.1404C66.5359 27.4947 66.0201 25.9648 64.9886 25.1847C64.4989 24.1532 60.9884 22.9614 62.319 21.9819C64.1695 20.1314 69.6823 14.3846 69.3009 20.4521H69.3052Z" fill="#FE8300"/>
<path d="M42.4523 34.5633C42.5433 33.7095 42.4523 32.6997 43.6484 33.2371C45.1956 34.0519 49.4039 35.4214 49.3302 37.3587C47.991 38.1214 42.1272 36.6436 42.4523 34.559V34.5633Z" fill="#030200"/>
<path d="M58.8778 37.4887C55.1073 37.5191 62.0286 33.5622 63.1121 33.3412C64.2649 32.9121 64.5986 32.9641 64.6723 34.39C64.4989 36.973 60.8931 37.259 58.8735 37.4887H58.8778Z" fill="#030200"/>
<path d="M52.9057 37.363C52.8233 37.3717 52.741 37.376 52.6587 37.3847C52.7367 37.3413 52.819 37.3153 52.9057 37.363Z" fill="#E1DAF5"/>
<path d="M54.7649 37.376H54.7303L54.6913 37.3717L54.7303 37.3457L54.7649 37.376Z" fill="#E1DAF5"/>
<path d="M71.1948 40.0804C71.4245 48.4579 58.8865 54.9111 51.4928 53.6195C45.4643 52.6444 35.0716 47.136 35.622 40.0847C39.0198 39.738 42.5173 40.4791 44.9356 43.0318C45.161 43.2528 45.3213 43.4392 45.5077 42.9451C46.9032 39.3653 50.8557 36.8299 54.6913 37.3717C57.8073 37.5797 60.3124 40.1237 61.1878 43.0231C61.3135 43.4522 61.6039 43.1185 61.7079 43.0275C64.3906 40.8995 67.8187 40.0717 71.1948 40.0804Z" fill="#FEFEFF"/>
<path d="M55.324 47.7948C55.4497 48.1502 55.2027 48.2542 54.9773 48.1588C54.6306 48.0158 54.4572 48.1458 54.2492 48.3799C53.9935 48.6616 53.7378 48.7656 53.5168 48.3149C53.3694 48.0158 53.105 48.0591 52.8233 48.1458C52.2773 48.3105 52.1343 48.2108 52.0952 47.6908C52.3336 47.7471 52.5676 47.7948 52.819 47.7948C53.6555 47.7861 54.4919 47.7948 55.3283 47.7948H55.324Z" fill="#030200"/>
<path d="M52.6196 47.2617C52.2253 47.188 51.8222 47.1533 51.4322 47.0277C51.1461 46.9366 50.9641 47.006 50.9944 47.3874C51.0291 47.8164 51.0074 48.2542 50.9944 48.6832C50.9944 48.8089 51.0941 49.0126 50.8947 49.0473C50.7214 49.0776 50.7041 48.8609 50.6347 48.7482C50.5567 48.6182 50.5177 48.4622 50.457 48.3148C50.405 48.1848 50.3877 47.9855 50.2923 47.9378C49.6986 47.6431 49.7203 47.006 49.4429 46.4686C50.392 46.5076 51.3108 46.3992 52.2383 46.5553C52.897 46.6679 53.8028 46.1869 53.7421 45.3201C53.6988 44.7003 53.5601 44.371 52.9707 44.1283C52.1776 43.8076 51.5405 43.2745 51.2891 42.386C51.1678 41.957 51.1765 41.5236 51.2458 41.1119C51.3368 40.6048 51.7355 40.3274 52.2556 40.3231C53.3521 40.3144 54.4486 40.2061 55.5407 40.3924C56.2428 40.5138 56.6459 41.3112 56.5202 42.152C56.3555 43.2528 55.7617 43.9809 54.7519 44.3883C54.5309 44.475 54.4269 44.592 54.4659 44.826C54.5309 45.1987 54.3879 45.5671 54.6176 45.9658C54.8473 46.3646 55.1073 46.4686 55.5017 46.4642C56.3685 46.4599 57.2309 46.4859 58.0934 46.4469C58.4791 46.4296 58.5398 46.6073 58.4618 46.8846C58.3751 47.201 58.3838 47.5477 57.946 47.7124C57.53 47.8684 57.556 48.3885 57.3913 48.7482C57.3393 48.8609 57.4606 49.0733 57.2179 49.0603C57.0099 49.0473 56.9709 48.8566 56.9622 48.7092C56.9449 48.2758 56.9276 47.8424 56.9622 47.4134C56.9926 47.0363 56.8322 46.8803 56.5158 47.0103C56.0911 47.1793 55.6144 46.967 55.22 47.2314C54.3532 47.331 53.4864 47.3614 52.6153 47.2487L52.6196 47.2617Z" fill="#030200"/>
<path d="M61.4348 31.7333C60.9538 31.7202 60.4727 31.7809 59.9916 31.6509C59.1812 31.4342 58.9125 30.5588 59.3112 29.796C60.0046 28.4785 61.8422 28.3355 62.9214 29.4146C63.4458 29.939 63.5108 30.9488 63.0557 31.5122C62.9257 31.6726 62.722 31.7289 62.5183 31.7333C62.1586 31.7419 61.7989 31.7333 61.4348 31.7333Z" fill="#FEFEFF"/>
<path d="M46.2531 31.7331C45.9671 31.7331 45.6767 31.7417 45.3907 31.7331C44.5889 31.7027 44.1858 31.447 43.9952 30.8576C43.8478 30.4069 44.2162 29.4448 44.6539 29.1241C45.5987 28.435 47.0766 28.604 47.848 29.4924C48.1167 29.8045 48.1947 31.148 47.952 31.4557C47.796 31.6551 47.5706 31.7244 47.3323 31.7331C46.9726 31.7417 46.6128 31.7331 46.2531 31.7331Z" fill="#FEFEFF"/>
</g>
<defs>
<clipPath id="clip0_14_26">
<rect width="40.7388" height="42" fill="white" transform="translate(33 15)"/>
</clipPath>
</defs>
</svg>
